# Blender v2.80 (sub 74) OBJ File: 'widgetshapes.blend'
# www.blender.org
mtllib chevron.mtl
o Plane.001
v -0.385840 0.000000 0.215137
v 0.385840 0.000000 0.215137
v -0.501853 0.000000 0.052519
v 0.501853 0.000000 0.052519
v 0.000000 0.000000 -0.102896
v 0.000000 0.000000 -0.354058
vt 0.500000 0.000000
vt 1.000000 0.000000
vt 1.000000 0.500000
vt 0.500000 0.500000
vt 0.000000 0.000000
vt 0.000000 0.500000
vn 0.0000 1.0000 0.0000
usemtl None
s off
f 5/1/1 2/2/1 4/3/1 6/4/1
f 1/5/1 5/1/1 6/4/1 3/6/1
