# Blender v2.90.0 OBJ File: 'widgetshapes.blend'
# www.blender.org
mtllib rotatetorus.mtl
o Circle
v -0.507243 -0.000000 -0.017706
v -0.482805 -0.000000 -0.017706
v -0.507243 -0.000000 0.014939
v -0.482805 -0.000000 0.014939
v -0.489959 -0.131284 -0.017706
v -0.466354 -0.124959 -0.017706
v -0.489959 -0.131284 0.014939
v -0.466354 -0.124959 0.014939
v -0.439285 -0.253621 -0.017706
v -0.418122 -0.241403 -0.017706
v -0.439285 -0.253621 0.014939
v -0.418122 -0.241403 0.014939
v -0.358675 -0.358675 -0.017706
v -0.341395 -0.341395 -0.017706
v -0.358675 -0.358675 0.014939
v -0.341395 -0.341395 0.014939
v -0.253621 -0.439285 -0.017706
v -0.241403 -0.418122 -0.017706
v -0.253621 -0.439285 0.014939
v -0.241403 -0.418122 0.014939
v -0.131284 -0.489959 -0.017706
v -0.124959 -0.466354 -0.017706
v -0.131284 -0.489959 0.014939
v -0.124959 -0.466354 0.014939
v 0.000000 -0.507243 -0.017706
v 0.000000 -0.482805 -0.017706
v 0.000000 -0.507243 0.014939
v 0.000000 -0.482805 0.014939
v 0.131284 -0.489959 -0.017706
v 0.124959 -0.466354 -0.017706
v 0.131284 -0.489959 0.014939
v 0.124959 -0.466354 0.014939
v 0.253621 -0.439285 -0.017706
v 0.241403 -0.418122 -0.017706
v 0.253621 -0.439285 0.014939
v 0.241403 -0.418122 0.014939
v 0.358675 -0.358675 -0.017706
v 0.341395 -0.341395 -0.017706
v 0.358675 -0.358675 0.014939
v 0.341395 -0.341395 0.014939
v 0.439285 -0.253621 -0.017706
v 0.418122 -0.241403 -0.017706
v 0.439285 -0.253621 0.014939
v 0.418122 -0.241403 0.014939
v 0.489959 -0.131284 -0.017706
v 0.466354 -0.124959 -0.017706
v 0.489959 -0.131284 0.014939
v 0.466354 -0.124959 0.014939
v 0.507243 0.000000 -0.017706
v 0.482805 0.000000 -0.017706
v 0.507243 0.000000 0.014939
v 0.482805 0.000000 0.014939
v 0.489959 0.131284 -0.017706
v 0.466354 0.124959 -0.017706
v 0.489959 0.131284 0.014939
v 0.466354 0.124959 0.014939
v 0.439285 0.253621 -0.017706
v 0.418122 0.241403 -0.017706
v 0.439285 0.253621 0.014939
v 0.418122 0.241403 0.014939
v 0.358675 0.358675 -0.017706
v 0.341395 0.341395 -0.017706
v 0.358675 0.358675 0.014939
v 0.341395 0.341395 0.014939
v 0.253621 0.439285 -0.017706
v 0.241403 0.418122 -0.017706
v 0.253621 0.439285 0.014939
v 0.241403 0.418122 0.014939
v 0.131284 0.489959 -0.017706
v 0.124959 0.466354 -0.017706
v 0.131284 0.489959 0.014939
v 0.124959 0.466354 0.014939
v -0.000000 0.507243 -0.017706
v -0.000000 0.482805 -0.017706
v -0.000000 0.507243 0.014939
v -0.000000 0.482805 0.014939
v -0.131284 0.489959 -0.017706
v -0.124959 0.466354 -0.017706
v -0.131284 0.489959 0.014939
v -0.124959 0.466354 0.014939
v -0.253621 0.439285 -0.017706
v -0.241403 0.418122 -0.017706
v -0.253621 0.439285 0.014939
v -0.241403 0.418122 0.014939
v -0.358675 0.358674 -0.017706
v -0.341395 0.341395 -0.017706
v -0.358675 0.358674 0.014939
v -0.341395 0.341395 0.014939
v -0.439285 0.253621 -0.017706
v -0.418122 0.241402 -0.017706
v -0.439285 0.253621 0.014939
v -0.418122 0.241402 0.014939
v -0.489959 0.131284 -0.017706
v -0.466354 0.124959 -0.017706
v -0.489959 0.131284 0.014939
v -0.466354 0.124959 0.014939
vt 0.000000 -0.017706
vt 0.000000 -0.017706
vt 0.041667 -0.017706
vt 0.041667 -0.017706
vt 0.083333 -0.017706
vt 0.083333 -0.017706
vt 0.125000 -0.017706
vt 0.125000 -0.017706
vt 0.166667 -0.017706
vt 0.166667 -0.017706
vt 0.208333 -0.017706
vt 0.208333 -0.017706
vt 0.250000 -0.017706
vt 0.250000 -0.017706
vt 0.291667 -0.017706
vt 0.291667 -0.017706
vt 0.333333 -0.017706
vt 0.333333 -0.017706
vt 0.375000 -0.017706
vt 0.375000 -0.017706
vt 0.416667 -0.017706
vt 0.416667 -0.017706
vt 0.458333 -0.017706
vt 0.458333 -0.017706
vt 0.500000 -0.017706
vt 0.500000 -0.017706
vt 0.541667 -0.017706
vt 0.541667 -0.017706
vt 0.583333 -0.017706
vt 0.583333 -0.017706
vt 0.625000 -0.017706
vt 0.625000 -0.017706
vt 0.666667 -0.017706
vt 0.666667 -0.017706
vt 0.708333 -0.017706
vt 0.708333 -0.017706
vt 0.750000 -0.017706
vt 0.750000 -0.017706
vt 0.791667 -0.017706
vt 0.791667 -0.017706
vt 0.833333 -0.017706
vt 0.833333 -0.017706
vt 0.875000 -0.017706
vt 0.875000 -0.017706
vt 0.916667 -0.017706
vt 0.916667 -0.017706
vt 0.958333 -0.017706
vt 0.958333 -0.017706
vt 1.000000 -0.017706
vt 1.000000 -0.017706
vt 0.000000 0.014939
vt 0.000000 0.014939
vt 0.041667 0.014939
vt 0.041667 0.014939
vt 0.083333 0.014939
vt 0.083333 0.014939
vt 0.125000 0.014939
vt 0.125000 0.014939
vt 0.166667 0.014939
vt 0.166667 0.014939
vt 0.208333 0.014939
vt 0.208333 0.014939
vt 0.250000 0.014939
vt 0.250000 0.014939
vt 0.291667 0.014939
vt 0.291667 0.014939
vt 0.333333 0.014939
vt 0.333333 0.014939
vt 0.375000 0.014939
vt 0.375000 0.014939
vt 0.416667 0.014939
vt 0.416667 0.014939
vt 0.458333 0.014939
vt 0.458333 0.014939
vt 0.500000 0.014939
vt 0.500000 0.014939
vt 0.541667 0.014939
vt 0.541667 0.014939
vt 0.583333 0.014939
vt 0.583333 0.014939
vt 0.625000 0.014939
vt 0.625000 0.014939
vt 0.666667 0.014939
vt 0.666667 0.014939
vt 0.708333 0.014939
vt 0.708333 0.014939
vt 0.750000 0.014939
vt 0.750000 0.014939
vt 0.791667 0.014939
vt 0.791667 0.014939
vt 0.833333 0.014939
vt 0.833333 0.014939
vt 0.875000 0.014939
vt 0.875000 0.014939
vt 0.916667 0.014939
vt 0.916667 0.014939
vt 0.958333 0.014939
vt 0.958333 0.014939
vt 1.000000 0.014939
vt 1.000000 0.014939
vn 0.7342 0.0000 -0.6789
vn -0.6751 0.0000 -0.7377
vn -0.6521 -0.1747 -0.7377
vn 0.7092 0.1900 -0.6789
vn -0.5847 -0.3375 -0.7377
vn 0.6359 0.3671 -0.6789
vn -0.4774 -0.4774 -0.7377
vn 0.5192 0.5192 -0.6789
vn -0.3375 -0.5847 -0.7377
vn 0.3671 0.6359 -0.6789
vn -0.1747 -0.6521 -0.7377
vn 0.1900 0.7092 -0.6789
vn 0.0000 -0.6751 -0.7377
vn 0.0000 0.7342 -0.6789
vn 0.1747 -0.6521 -0.7377
vn -0.1900 0.7092 -0.6789
vn 0.3375 -0.5847 -0.7377
vn -0.3671 0.6359 -0.6789
vn 0.4774 -0.4774 -0.7377
vn -0.5192 0.5192 -0.6789
vn 0.5847 -0.3375 -0.7377
vn -0.6359 0.3671 -0.6789
vn 0.6521 -0.1747 -0.7377
vn -0.7092 0.1900 -0.6789
vn 0.6751 0.0000 -0.7377
vn -0.7342 0.0000 -0.6789
vn 0.6521 0.1747 -0.7377
vn -0.7092 -0.1900 -0.6789
vn 0.5847 0.3375 -0.7377
vn -0.6359 -0.3671 -0.6789
vn 0.4774 0.4774 -0.7377
vn -0.5192 -0.5192 -0.6789
vn 0.3375 0.5847 -0.7377
vn -0.3671 -0.6359 -0.6789
vn 0.1747 0.6521 -0.7377
vn -0.1900 -0.7092 -0.6789
vn 0.0000 0.6751 -0.7377
vn 0.0000 -0.7342 -0.6789
vn -0.1747 0.6521 -0.7377
vn 0.1900 -0.7092 -0.6789
vn -0.3375 0.5847 -0.7377
vn 0.3671 -0.6359 -0.6789
vn -0.4774 0.4774 -0.7377
vn 0.5192 -0.5192 -0.6789
vn -0.5847 0.3375 -0.7377
vn 0.6359 -0.3671 -0.6789
vn -0.6521 0.1747 -0.7377
vn 0.7092 -0.1900 -0.6789
usemtl None
s 1
f 1/1/1 2/2/2 6/3/3 5/4/4
f 5/4/4 6/3/3 10/5/5 9/6/6
f 9/6/6 10/5/5 14/7/7 13/8/8
f 13/8/8 14/7/7 18/9/9 17/10/10
f 17/10/10 18/9/9 22/11/11 21/12/12
f 21/12/12 22/11/11 26/13/13 25/14/14
f 25/14/14 26/13/13 30/15/15 29/16/16
f 29/16/16 30/15/15 34/17/17 33/18/18
f 33/18/18 34/17/17 38/19/19 37/20/20
f 37/20/20 38/19/19 42/21/21 41/22/22
f 41/22/22 42/21/21 46/23/23 45/24/24
f 45/24/24 46/23/23 50/25/25 49/26/26
f 49/26/26 50/25/25 54/27/27 53/28/28
f 53/28/28 54/27/27 58/29/29 57/30/30
f 57/30/30 58/29/29 62/31/31 61/32/32
f 61/32/32 62/31/31 66/33/33 65/34/34
f 65/34/34 66/33/33 70/35/35 69/36/36
f 69/36/36 70/35/35 74/37/37 73/38/38
f 73/38/38 74/37/37 78/39/39 77/40/40
f 77/40/40 78/39/39 82/41/41 81/42/42
f 81/42/42 82/41/41 86/43/43 85/44/44
f 85/44/44 86/43/43 90/45/45 89/46/46
f 89/46/46 90/45/45 94/47/47 93/48/48
f 93/48/48 94/47/47 2/49/2 1/50/1
f 3/51/1 4/52/2 8/53/3 7/54/4
f 7/54/4 8/53/3 12/55/5 11/56/6
f 11/56/6 12/55/5 16/57/7 15/58/8
f 15/58/8 16/57/7 20/59/9 19/60/10
f 19/60/10 20/59/9 24/61/11 23/62/12
f 23/62/12 24/61/11 28/63/13 27/64/14
f 27/64/14 28/63/13 32/65/15 31/66/16
f 31/66/16 32/65/15 36/67/17 35/68/18
f 35/68/18 36/67/17 40/69/19 39/70/20
f 39/70/20 40/69/19 44/71/21 43/72/22
f 43/72/22 44/71/21 48/73/23 47/74/24
f 47/74/24 48/73/23 52/75/25 51/76/26
f 51/76/26 52/75/25 56/77/27 55/78/28
f 55/78/28 56/77/27 60/79/29 59/80/30
f 59/80/30 60/79/29 64/81/31 63/82/32
f 63/82/32 64/81/31 68/83/33 67/84/34
f 67/84/34 68/83/33 72/85/35 71/86/36
f 71/86/36 72/85/35 76/87/37 75/88/38
f 75/88/38 76/87/37 80/89/39 79/90/40
f 79/90/40 80/89/39 84/91/41 83/92/42
f 83/92/42 84/91/41 88/93/43 87/94/44
f 87/94/44 88/93/43 92/95/45 91/96/46
f 91/96/46 92/95/45 96/97/47 95/98/48
f 95/98/48 96/97/47 4/99/2 3/100/1
f 1/1/1 3/51/1 7/54/4 5/4/4
f 5/4/4 7/54/4 11/56/6 9/6/6
f 9/6/6 11/56/6 15/58/8 13/8/8
f 13/8/8 15/58/8 19/60/10 17/10/10
f 17/10/10 19/60/10 23/62/12 21/12/12
f 21/12/12 23/62/12 27/64/14 25/14/14
f 25/14/14 27/64/14 31/66/16 29/16/16
f 29/16/16 31/66/16 35/68/18 33/18/18
f 33/18/18 35/68/18 39/70/20 37/20/20
f 37/20/20 39/70/20 43/72/22 41/22/22
f 41/22/22 43/72/22 47/74/24 45/24/24
f 45/24/24 47/74/24 51/76/26 49/26/26
f 49/26/26 51/76/26 55/78/28 53/28/28
f 53/28/28 55/78/28 59/80/30 57/30/30
f 57/30/30 59/80/30 63/82/32 61/32/32
f 61/32/32 63/82/32 67/84/34 65/34/34
f 65/34/34 67/84/34 71/86/36 69/36/36
f 69/36/36 71/86/36 75/88/38 73/38/38
f 73/38/38 75/88/38 79/90/40 77/40/40
f 77/40/40 79/90/40 83/92/42 81/42/42
f 81/42/42 83/92/42 87/94/44 85/44/44
f 85/44/44 87/94/44 91/96/46 89/46/46
f 89/46/46 91/96/46 95/98/48 93/48/48
f 93/48/48 95/98/48 3/100/1 1/50/1
f 4/52/2 2/2/2 6/3/3 8/53/3
f 8/53/3 6/3/3 10/5/5 12/55/5
f 12/55/5 10/5/5 14/7/7 16/57/7
f 16/57/7 14/7/7 18/9/9 20/59/9
f 20/59/9 18/9/9 22/11/11 24/61/11
f 24/61/11 22/11/11 26/13/13 28/63/13
f 28/63/13 26/13/13 30/15/15 32/65/15
f 32/65/15 30/15/15 34/17/17 36/67/17
f 36/67/17 34/17/17 38/19/19 40/69/19
f 40/69/19 38/19/19 42/21/21 44/71/21
f 44/71/21 42/21/21 46/23/23 48/73/23
f 48/73/23 46/23/23 50/25/25 52/75/25
f 52/75/25 50/25/25 54/27/27 56/77/27
f 56/77/27 54/27/27 58/29/29 60/79/29
f 60/79/29 58/29/29 62/31/31 64/81/31
f 64/81/31 62/31/31 66/33/33 68/83/33
f 68/83/33 66/33/33 70/35/35 72/85/35
f 72/85/35 70/35/35 74/37/37 76/87/37
f 76/87/37 74/37/37 78/39/39 80/89/39
f 80/89/39 78/39/39 82/41/41 84/91/41
f 84/91/41 82/41/41 86/43/43 88/93/43
f 88/93/43 86/43/43 90/45/45 92/95/45
f 92/95/45 90/45/45 94/47/47 96/97/47
f 96/97/47 94/47/47 2/49/2 4/99/2
