# Blender v2.80 (sub 74) OBJ File: 'widgetshapes.blend'
# www.blender.org
mtllib scalearrow.mtl
o Cylinder.001
v 0.000000 0.067389 -0.500975
v 0.000000 0.067389 0.309869
v 0.000000 0.000000 -0.500975
v 0.043317 0.051623 -0.500975
v 0.043317 0.051623 0.309869
v 0.066366 0.011702 -0.500975
v 0.066366 0.011702 0.309869
v 0.058361 -0.033695 -0.500975
v 0.058361 -0.033695 0.309869
v 0.023048 -0.063325 -0.500975
v 0.023049 -0.063325 0.309869
v -0.023049 -0.063325 -0.500975
v -0.023049 -0.063325 0.309869
v -0.058361 -0.033695 -0.500975
v -0.058361 -0.033695 0.309869
v -0.066366 0.011702 -0.500975
v -0.066366 0.011702 0.309869
v -0.043317 0.051623 -0.500975
v -0.043317 0.051623 0.309869
vt 0.000000 -0.502466
vt 0.000000 1.119223
vt 0.111111 1.119223
vt 0.111111 -0.502466
vt 0.222222 1.119223
vt 0.222222 -0.502466
vt 0.333333 1.119223
vt 0.333333 -0.502466
vt 0.444444 1.119223
vt 0.444444 -0.502466
vt 0.555556 1.119223
vt 0.555556 -0.502466
vt 0.666667 1.119223
vt 0.666667 -0.502466
vt 0.777778 1.119223
vt 0.777778 -0.502466
vt 0.888889 1.119223
vt 0.888889 -0.502466
vt 1.000000 1.119223
vt 1.000000 -0.502466
vt 0.111111 1.119223
vt 0.222222 1.119223
vt 0.333333 1.119223
vt 0.444444 1.119223
vt 0.555556 1.119223
vt 0.666667 1.119223
vt 0.777778 1.119223
vt 0.888889 1.119223
vt 1.000000 1.119223
vn 0.0000 -1.0000 0.0000
vn 0.0000 -0.7703 0.6376
vn -0.4952 -0.5901 0.6376
vn -0.6428 -0.7660 0.0000
vn -0.7586 -0.1338 0.6376
vn -0.9848 -0.1736 0.0000
vn -0.6671 0.3852 0.6376
vn -0.8660 0.5000 0.0000
vn -0.2635 0.7239 0.6376
vn -0.3420 0.9397 0.0000
vn 0.2635 0.7239 0.6376
vn 0.3420 0.9397 0.0000
vn 0.6671 0.3852 0.6376
vn 0.8660 0.5000 0.0000
vn 0.7586 -0.1338 0.6376
vn 0.9848 -0.1736 0.0000
vn 0.4952 -0.5901 0.6376
vn 0.6428 -0.7660 0.0000
vn 0.0000 0.0000 1.0000
usemtl None
s 1
f 2/1/1 1/2/2 4/3/3 5/4/4
f 5/4/4 4/3/3 6/5/5 7/6/6
f 7/6/6 6/5/5 8/7/7 9/8/8
f 9/8/8 8/7/7 10/9/9 11/10/10
f 11/10/10 10/9/9 12/11/11 13/12/12
f 13/12/12 12/11/11 14/13/13 15/14/14
f 15/14/14 14/13/13 16/15/15 17/16/16
f 17/16/16 16/15/15 18/17/17 19/18/18
f 19/18/18 18/17/17 1/19/2 2/20/1
f 1/2/2 3/21/19 4/3/3
f 4/3/3 3/22/19 6/5/5
f 6/5/5 3/23/19 8/7/7
f 8/7/7 3/24/19 10/9/9
f 10/9/9 3/25/19 12/11/11
f 12/11/11 3/26/19 14/13/13
f 14/13/13 3/27/19 16/15/15
f 16/15/15 3/28/19 18/17/17
f 18/17/17 3/29/19 1/19/2
o Cube
v -0.159150 -0.159150 0.503346
v -0.159150 0.159150 0.503346
v -0.159150 -0.159150 0.272250
v -0.159150 0.159150 0.272250
v 0.159150 -0.159150 0.503346
v 0.159150 0.159150 0.503346
v 0.159150 -0.159150 0.272250
v 0.159150 0.159150 0.272250
vt 0.375000 0.000000
vt 0.625000 0.000000
vt 0.625000 0.250000
vt 0.375000 0.250000
vt 0.625000 0.500000
vt 0.375000 0.500000
vt 0.625000 0.750000
vt 0.375000 0.750000
vt 0.625000 1.000000
vt 0.375000 1.000000
vt 0.125000 0.500000
vt 0.125000 0.750000
vt 0.875000 0.500000
vt 0.875000 0.750000
vn -1.0000 0.0000 0.0000
vn 0.0000 0.0000 -1.0000
vn 1.0000 0.0000 0.0000
vn 0.0000 0.0000 1.0000
vn 0.0000 -1.0000 0.0000
vn 0.0000 1.0000 0.0000
usemtl None
s off
f 20/30/20 21/31/20 23/32/20 22/33/20
f 22/33/21 23/32/21 27/34/21 26/35/21
f 26/35/22 27/34/22 25/36/22 24/37/22
f 24/37/23 25/36/23 21/38/23 20/39/23
f 22/40/24 26/35/24 24/37/24 20/41/24
f 27/34/25 23/42/25 21/43/25 25/36/25
